<?xml version="1.0" standalone="no"?><!DOCTYPE svg PUBLIC "-//W3C//DTD SVG 1.1//EN" "http://www.w3.org/Graphics/SVG/1.1/DTD/svg11.dtd"><svg t="1593194333397" class="icon" viewBox="0 0 1024 1024" version="1.1" xmlns="http://www.w3.org/2000/svg" p-id="4311" width="300" height="300" xmlns:xlink="http://www.w3.org/1999/xlink"><defs><style type="text/css"></style></defs><path d="M432 560c-61.76 0-112-57.44-112-128s50.24-128 112-128 112 57.44 112 128-50.24 128-112 128z m0-224c-44.16 0-80 43.04-80 96s35.84 96 80 96 80-43.04 80-96-35.84-96-80-96z" p-id="4312"></path><path d="M768 688H96a73.12 73.12 0 0 1-21.44-3.04A80 80 0 0 1 16 608V256a80 80 0 0 1 80-80h672a73.12 73.12 0 0 1 21.44 3.04A80 80 0 0 1 848 256v352a80 80 0 0 1-80 80zM96 208a48 48 0 0 0-48 48v352a48 48 0 0 0 35.2 46.08A44.32 44.32 0 0 0 96 656h672a48 48 0 0 0 48-48V256a48 48 0 0 0-35.2-46.08A44.32 44.32 0 0 0 768 208z" p-id="4313"></path><path d="M848 768H176a73.12 73.12 0 0 1-21.44-3.04A80 80 0 0 1 96 688v-16a16 16 0 0 1 16-16h656a48 48 0 0 0 48-48V272a16 16 0 0 1 16-16h16a73.12 73.12 0 0 1 21.44 3.04A80 80 0 0 1 928 336v352a80 80 0 0 1-80 80zM128 688a48 48 0 0 0 35.2 46.08 44.32 44.32 0 0 0 12.8 1.92h672a48 48 0 0 0 48-48V336a48 48 0 0 0-35.2-46.08A44.32 44.32 0 0 0 848 288v320a80 80 0 0 1-80 80z" p-id="4314"></path><path d="M928 848H256a73.12 73.12 0 0 1-21.44-3.04A80 80 0 0 1 176 768v-16a16 16 0 0 1 16-16h656a48 48 0 0 0 48-48V352a16 16 0 0 1 16-16h16a73.12 73.12 0 0 1 21.44 3.04A80 80 0 0 1 1008 416v352a80 80 0 0 1-80 80z m-720-80a48 48 0 0 0 35.2 46.08 44.32 44.32 0 0 0 12.8 1.92h672a48 48 0 0 0 48-48V416a48 48 0 0 0-35.2-46.08A44.32 44.32 0 0 0 928 368v320a80 80 0 0 1-80 80z" p-id="4315"></path><path d="M704 624H160a16 16 0 0 1-16-16 48 48 0 0 0-48-48 16 16 0 0 1-16-16V320a16 16 0 0 1 16-16 48 48 0 0 0 48-48 16 16 0 0 1 16-16h544a16 16 0 0 1 16 16 48 48 0 0 0 48 48 16 16 0 0 1 16 16v224a16 16 0 0 1-16 16 48 48 0 0 0-48 48 16 16 0 0 1-16 16z m-529.6-32h515.2a80 80 0 0 1 62.4-62.4V334.4a80 80 0 0 1-62.4-62.4H174.4A80 80 0 0 1 112 334.4v195.2a80 80 0 0 1 62.4 62.4z" p-id="4316"></path></svg>