<?xml version="1.0" standalone="no"?><!DOCTYPE svg PUBLIC "-//W3C//DTD SVG 1.1//EN" "http://www.w3.org/Graphics/SVG/1.1/DTD/svg11.dtd"><svg t="1592968514633" class="icon" viewBox="0 0 1098 1024" version="1.1" xmlns="http://www.w3.org/2000/svg" p-id="7639" xmlns:xlink="http://www.w3.org/1999/xlink" width="257.34375" height="240"><defs><style type="text/css"></style></defs><path d="M548.576 0l548.576 219.424 0 73.152-73.152 0q0 14.848-11.712 25.728t-27.712 10.848l-872 0q-16 0-27.712-10.848t-11.712-25.728l-73.152 0 0-73.152zM146.272 365.728l146.272 0 0 438.848 73.152 0 0-438.848 146.272 0 0 438.848 73.152 0 0-438.848 146.272 0 0 438.848 73.152 0 0-438.848 146.272 0 0 438.848 33.728 0q16 0 27.712 10.848t11.712 25.728l0 36.576-950.848 0 0-36.576q0-14.848 11.712-25.728t27.712-10.848l33.728 0 0-438.848zM1057.728 914.272q16 0 27.712 10.848t11.712 25.728l0 73.152-1097.152 0 0-73.152q0-14.848 11.712-25.728t27.712-10.848l1018.272 0z" p-id="7640"></path></svg>