<?xml version="1.0" standalone="no"?><!DOCTYPE svg PUBLIC "-//W3C//DTD SVG 1.1//EN" "http://www.w3.org/Graphics/SVG/1.1/DTD/svg11.dtd"><svg t="1590881090949" class="icon" viewBox="0 0 1024 1024" version="1.1" xmlns="http://www.w3.org/2000/svg" p-id="1859" xmlns:xlink="http://www.w3.org/1999/xlink" width="200" height="200"><defs><style type="text/css"></style></defs><path d="M868.266667 522.666667l59.733333 60.16-278.613333 281.173333-148.053334-149.333333 59.733334-60.16 88.32 88.746666 218.88-220.586666m-473.6 192l128 128h-426.666667v-85.333334c0-94.293333 152.746667-170.666667 341.333333-170.666666l80.64 4.693333-123.306666 123.306667m42.666666-554.666667a170.666667 170.666667 0 0 1 170.666667 170.666667 170.666667 170.666667 0 0 1-170.666667 170.666666 170.666667 170.666667 0 0 1-170.666666-170.666666 170.666667 170.666667 0 0 1 170.666666-170.666667z" fill="#000000" p-id="1860"></path></svg>