<?xml version="1.0" standalone="no"?><!DOCTYPE svg PUBLIC "-//W3C//DTD SVG 1.1//EN" "http://www.w3.org/Graphics/SVG/1.1/DTD/svg11.dtd"><svg t="1593219973640" class="icon" viewBox="0 0 1024 1024" version="1.1" xmlns="http://www.w3.org/2000/svg" p-id="1189" width="240" height="240" xmlns:xlink="http://www.w3.org/1999/xlink"><defs><style type="text/css"></style></defs><path d="M853.333333 955.733333H170.666667c-66.030933 0-102.4-36.369067-102.4-102.4V426.666667c0-66.030933 36.369067-102.4 102.4-102.4h494.933333v-153.6c0-27.818667 9.949867-52.189867 29.5424-72.448C715.810133 78.216533 740.1984 68.266667 768 68.266667c27.921067 0 52.0704 10.001067 71.799467 29.7472 5.7344 5.6832 10.7008 11.8784 14.762666 18.363733 10.461867 15.9744 15.837867 34.338133 15.837867 54.289067v154.538666l0.1536 0.017067c53.930667 5.256533 83.473067 38.5536 85.179733 96.256a17.408 17.408 0 0 1-0.170666 2.850133c0.119467 0.768 0.170667 1.553067 0.170666 2.338134v426.666666c0 76.987733-46.4384 97.672533-85.384533 101.461334A160.136533 160.136533 0 0 1 853.333333 955.733333zM170.666667 358.4c-47.223467 0-68.266667 21.0432-68.266667 68.266667v426.666666c0 47.223467 21.0432 68.266667 68.266667 68.266667h682.666666c4.522667 0 9.0112-0.273067 13.550934-0.750933C904.772267 917.1456 921.6 896.341333 921.6 853.333333V426.666667c0-0.802133 0.0512-1.5872 0.170667-2.3552a21.333333 21.333333 0 0 1-0.170667-1.826134c-1.143467-38.9632-16.981333-58.5216-51.2-62.941866V682.666667c0 28.023467-10.359467 52.258133-30.805333 72.004266-3.498667 3.6352-7.68 7.304533-12.032 10.478934C810.6496 778.274133 790.4768 785.066667 768 785.066667a99.6352 99.6352 0 0 1-53.367467-14.933334 119.1936 119.1936 0 0 1-19.268266-15.650133C675.618133 734.754133 665.6 710.587733 665.6 682.666667V358.4H170.666667z m529.066666 85.333333v238.933334c0 18.807467 6.468267 34.389333 19.746134 47.6672 4.317867 4.3008 8.840533 8.004267 13.448533 10.990933 10.325333 6.4 21.896533 9.608533 35.072 9.608533 14.933333 0 27.716267-4.266667 39.048533-13.056a62.805333 62.805333 0 0 0 8.3968-7.338666C829.5936 716.868267 836.266667 701.3376 836.266667 682.666667V443.733333h-136.533334z m0-34.133333h136.533334V170.666667c0-13.397333-3.413333-25.1392-10.4448-35.8912a70.314667 70.314667 0 0 0-10.120534-12.5952C802.389333 108.8512 786.7904 102.4 768 102.4c-18.8928 0-34.833067 6.519467-48.708267 19.950933C706.2528 135.816533 699.733333 151.7568 699.733333 170.666667v238.933333z m-17.066666 460.8h-85.333334a17.066667 17.066667 0 1 1 0-34.133333h85.333334a17.066667 17.066667 0 1 1 0 34.133333zM426.666667 614.4H170.666667a17.066667 17.066667 0 1 1 0-34.133333h256a17.066667 17.066667 0 1 1 0 34.133333z m0-85.333333H170.666667a17.066667 17.066667 0 1 1 0-34.133334h256a17.066667 17.066667 0 0 1 0 34.133334z" p-id="1190"></path><path d="M768 887.466667a34.133333 34.133333 0 0 1-34.133333-34.133334v-18.773333a34.133333 34.133333 0 0 1 68.266666 0V853.333333a34.133333 34.133333 0 0 1-34.133333 34.133334z m170.666667-426.666667a34.133333 34.133333 0 0 1-34.133334-34.133333V256c0-39.253333-16.503467-44.765867-24.439466-47.394133a34.133333 34.133333 0 0 1 21.5552-64.768C928.238933 152.6784 972.8 179.012267 972.8 256v170.666667a34.133333 34.133333 0 0 1-34.133333 34.133333z" p-id="1191"></path><path d="M802.133333 834.56h-68.266666V768h68.266666v66.56z m77.585067-626.090667C872.686933 206.0288 863.7952 204.8 853.333333 204.8V136.533333c18.090667 0 34.474667 2.491733 48.708267 7.424l-22.3232 64.512z" p-id="1192"></path></svg>