<?xml version="1.0" standalone="no"?><!DOCTYPE svg PUBLIC "-//W3C//DTD SVG 1.1//EN" "http://www.w3.org/Graphics/SVG/1.1/DTD/svg11.dtd"><svg t="1592969236761" class="icon" viewBox="0 0 1024 1024" version="1.1" xmlns="http://www.w3.org/2000/svg" p-id="10045" xmlns:xlink="http://www.w3.org/1999/xlink" width="240" height="240"><defs><style type="text/css"></style></defs><path d="M85.333333 290.133333h853.333334v170.666667H85.333333z" p-id="10046"></path><path d="M853.333333 819.2H170.666667c-66.030933 0-102.4-36.369067-102.4-102.4V290.133333c0-66.030933 36.369067-102.4 102.4-102.4h682.666666c66.030933 0 102.4 36.369067 102.4 102.4v426.666667c0 66.030933-36.369067 102.4-102.4 102.4zM102.4 477.866667v238.933333c0 47.223467 21.0432 68.266667 68.266667 68.266667h682.666666c47.223467 0 68.266667-21.0432 68.266667-68.266667V477.866667H102.4z m0-34.133334h819.2v-136.533333H102.4v136.533333z m1.0752-170.666666h817.066667c-4.829867-35.242667-26.112-51.2-67.208534-51.2H170.666667c-41.079467 0-62.3616 15.957333-67.191467 51.2zM512.853333 733.866667h-170.666666a17.066667 17.066667 0 1 1 0-34.133334h170.666666a17.066667 17.066667 0 1 1 0 34.133334z m-256 0H170.666667a17.066667 17.066667 0 1 1 0-34.133334h86.186666a17.066667 17.066667 0 1 1 0 34.133334z" p-id="10047"></path></svg>