<?xml version="1.0" standalone="no"?><!DOCTYPE svg PUBLIC "-//W3C//DTD SVG 1.1//EN" "http://www.w3.org/Graphics/SVG/1.1/DTD/svg11.dtd"><svg t="1583411637736" class="icon" viewBox="0 0 1024 1024" version="1.1" xmlns="http://www.w3.org/2000/svg" p-id="5984" xmlns:xlink="http://www.w3.org/1999/xlink" width="200" height="200"><defs><style type="text/css"></style></defs><path d="M850.6 649.6c-82.8-31.4-77.8-18.8-77.8-77 0-37.6 18.6-23.8 30.4-95.4 4.6-28.2 8.4-9.4 18.2-54.6 5.2-23.6-3.6-25.4-2.4-36.6 1-11.2 2-21.4 4-44.4 2.4-28.8-23.2-104-114.8-104-91.6 0-117.2 75.2-114.8 104 1.8 23.2 3 33.2 4 44.4 1 11.2-7.6 13-2.4 36.6 9.8 45.2 13.6 26.2 18.2 54.6 11.8 71.6 30.2 58 30.2 95.4 0 26.8 6.2 38-29.8 55 10.8 3.8 23.4 8.4 38.6 14.2 108.8 41.4 106.2 81.6 109 100.6 2 13 3 116.6 3.4 153.6L960 896c0 0 0-161-3-179.8C954.8 701.4 935 681.8 850.6 649.6z" p-id="5985"></path><path d="M714 896c0 0 0-28.2-0.4-60.8-0.4-37.2-1.4-80-3.4-92.8-3-19-28.6-44.4-137.2-85.8-15-5.6-27.6-10.2-38.6-14.2-66.6-23.6-61.8-31.4-61.8-96 0-48.6 24-17 39.2-109.2 6-36.4 10.8-12.2 23.4-70.4 6.8-30.4-4.6-32.8-3.2-47.4 1.4-14.6 2.8-27.6 5.2-57.4 3.2-37-29.8-134.2-148.2-134.2-118.4 0-151.2 97-148.2 134.2 2.4 29.8 3.8 42.8 5.4 57.4 1.4 14.6-10 16.8-3.2 47.4 12.8 58.2 17.6 34 23.6 70.4 15.2 92.2 39 60.6 39 109.2 0 75.2 6.6 69.6-100.4 110.2-108.6 41.4-134.2 66.8-137.2 85.8C64 766.6 64 896 64 896l325 0L714 896z" p-id="5986"></path></svg>