<?xml version="1.0" standalone="no"?><!DOCTYPE svg PUBLIC "-//W3C//DTD SVG 1.1//EN" "http://www.w3.org/Graphics/SVG/1.1/DTD/svg11.dtd"><svg t="1583410533139" class="icon" viewBox="0 0 1024 1024" version="1.1" xmlns="http://www.w3.org/2000/svg" p-id="3357" xmlns:xlink="http://www.w3.org/1999/xlink" width="200" height="200"><defs><style type="text/css"></style></defs><path d="M543.507692 557.292308c-11.815385 11.815385-11.815385 29.538462 0 41.353846l41.353846 41.353846c11.815385 11.815385 29.538462 11.815385 41.353847 0L892.061538 374.153846c11.815385-11.815385 11.815385-29.538462 0-41.353846L628.184615 66.953846c-11.815385-11.815385-29.538462-11.815385-41.353846 0l-41.353846 41.353846c-11.815385 11.815385-11.815385 29.538462 0 41.353846l112.246154 110.276924c31.507692 35.446154-19.692308 33.476923-19.692308 33.476923h-157.538461C293.415385 295.384615 133.907692 448.984615 137.846154 636.061538 141.784615 817.230769 289.476923 964.923077 472.615385 964.923077h68.923077c15.753846 0 29.538462-13.784615 29.538461-29.538462v-59.076923c0-15.753846-13.784615-29.538462-29.538461-29.538461h-63.015385c-112.246154 0-210.707692-82.707692-222.523077-194.953846-11.815385-129.969231 90.584615-238.276923 216.615385-238.276923h169.353846c13.784615 3.938462 19.692308 21.661538 9.846154 33.476923l-108.307693 110.276923z" p-id="3358"></path></svg>