<?xml version="1.0" standalone="no"?><!DOCTYPE svg PUBLIC "-//W3C//DTD SVG 1.1//EN" "http://www.w3.org/Graphics/SVG/1.1/DTD/svg11.dtd"><svg t="1592602611880" class="icon" viewBox="0 0 1024 1024" version="1.1" xmlns="http://www.w3.org/2000/svg" p-id="5111" xmlns:xlink="http://www.w3.org/1999/xlink" width="200" height="200"><defs><style type="text/css"></style></defs><path d="M870.4 422.3232h-76.8V294.4c0-155.264-126.336-281.6-281.6-281.6S230.4 139.136 230.4 294.4v127.9232H153.6c-28.2368 0-51.2 22.9632-51.2 51.2V960c0 28.2368 22.9632 51.2 51.2 51.2h716.8c28.2368 0 51.2-22.9632 51.2-51.2V473.5232c0-28.2368-22.9632-51.2-51.2-51.2zM281.6 294.4c0-127.0272 103.3728-230.4 230.4-230.4 127.0528 0 230.4 103.3728 230.4 230.4v127.9232H281.6V294.4z m-128 665.6V473.5232h716.8l0.0512 486.4768H153.6z" p-id="5112"></path><path d="M544.2816 715.5456c11.3152-9.3952 18.6624-23.3984 18.6624-39.2448a51.2 51.2 0 0 0-102.4 0c0 15.8464 7.3472 29.8496 18.6624 39.2448l-48.768 84.4544a25.5488 25.5488 0 0 0 22.1696 38.4h118.272c0.1792 0 0.384 0.0512 0.512 0a25.6 25.6 0 0 0 19.4304-42.2912l-46.5408-80.5632z" p-id="5113"></path></svg>