<?xml version="1.0" standalone="no"?><!DOCTYPE svg PUBLIC "-//W3C//DTD SVG 1.1//EN" "http://www.w3.org/Graphics/SVG/1.1/DTD/svg11.dtd"><svg t="1593194160340" class="icon" viewBox="0 0 1024 1024" version="1.1" xmlns="http://www.w3.org/2000/svg" p-id="2594" xmlns:xlink="http://www.w3.org/1999/xlink" width="300" height="300"><defs><style type="text/css"></style></defs><path d="M1019.2 724.8c-20.8-59.2-81.6-94.4-140.8-76.8l-196.8 46.4c-8-46.4-46.4-89.6-97.6-97.6H371.2c-17.6-25.6-46.4-43.2-81.6-43.2H94.4c-51.2 0-94.4 43.2-94.4 94.4v235.2c0 56 43.2 97.6 94.4 97.6h192c25.6 0 51.2-12.8 72-30.4 4.8-4.8 4.8-4.8 4.8-8 46.4 20.8 97.6 33.6 153.6 33.6 33.6 0 64-4.8 94.4-12.8l256-72 72-20.8c30.4-8 56-30.4 72-56 12.8-25.6 17.6-59.2 8-89.6zM294.4 891.2c0 4.8-4.8 4.8-8 4.8h-192c-4.8 0-8-4.8-8-8V652.8c0-8 4.8-12.8 8-12.8h192c4.8 0 8 4.8 8 8v235.2c4.8 4.8 4.8 8 0 8z m640-115.2c-4.8 8-8 12.8-20.8 12.8l-72 20.8-256 72c-64 17.6-132.8 12.8-192-17.6l-9.6-6.4V683.2h187.2c17.6 4.8 25.6 12.8 25.6 25.6v4.8l-51.2 12.8c-20.8 4.8-38.4 30.4-30.4 51.2 4.8 20.8 30.4 38.4 51.2 30.4l332.8-81.6c17.6-4.8 33.6 4.8 38.4 20.8 1.6 12.8 1.6 20.8-3.2 28.8zM768 340.8h84.8c20.8 0 43.2 17.6 43.2 43.2s-17.6 43.2-43.2 43.2h-128c-25.6 0-43.2 17.6-43.2 43.2s17.6 43.2 43.2 43.2H768c0 25.6 17.6 43.2 43.2 43.2s43.2-17.6 43.2-43.2c68.8 0 128-56 128-128s-56-128-128-128H768c-20.8 0-43.2-17.6-43.2-43.2s17.6-43.2 43.2-43.2h128c25.6 0 43.2-17.6 43.2-43.2S921.6 84.8 896 84.8h-43.2c0-25.6-17.6-43.2-43.2-43.2S768 59.2 768 84.8c-68.8 0-128 56-128 128s59.2 128 128 128z" p-id="2595"></path></svg>