<?xml version="1.0" standalone="no"?><!DOCTYPE svg PUBLIC "-//W3C//DTD SVG 1.1//EN" "http://www.w3.org/Graphics/SVG/1.1/DTD/svg11.dtd"><svg t="1583409242322" class="icon" viewBox="0 0 1024 1024" version="1.1" xmlns="http://www.w3.org/2000/svg" p-id="2354" xmlns:xlink="http://www.w3.org/1999/xlink" width="200" height="200"><defs><style type="text/css"></style></defs><path d="M120.48 0h783.04A120.48 120.48 0 0 1 1024 120.48v783.04A120.48 120.48 0 0 1 903.52 1024H120.48A120.48 120.48 0 0 1 0 903.52V120.48A120.48 120.48 0 0 1 120.48 0z m237.104 301.152a30.112 30.112 0 0 0-44.48 40.624l146.544 160.416a30.112 30.112 0 0 0 44.48 0l275.104-301.168a30.112 30.112 0 0 0-44.48-40.64L481.888 437.248l-124.32-136.08z m-116.64 421.664h572.24a30.112 30.112 0 0 0 0-60.224H240.944a30.112 30.112 0 0 0 0 60.224z m0 150.592h572.24a30.112 30.112 0 1 0 0-60.224H240.944a30.112 30.112 0 0 0 0 60.224z" p-id="2355"></path></svg>